<?xml version="1.0" encoding="utf-8"?>
<!-- Generator: Adobe Illustrator 23.0.3, SVG Export Plug-In . SVG Version: 6.00 Build 0)  -->
<svg version="1.1" xmlns="http://www.w3.org/2000/svg" xmlns:xlink="http://www.w3.org/1999/xlink" x="0px" y="0px"
	 viewBox="0 0 510.2 572.6" style="enable-background:new 0 0 510.2 572.6;" xml:space="preserve">
<style type="text/css">
	.st0{fill:#202124;}
	.st1{fill:#FFFFFF;stroke:#202124;stroke-width:0.75;stroke-miterlimit:10;}
	.st2{fill:#5492ED;}
	.st3{fill:#E5E5E5;}
	.st4{fill:#C3CFE0;}
	.st5{fill:#EB506E;}
	.st6{fill:#FFFFFF;}
	.st7{fill:none;stroke:#202124;stroke-width:0.75;stroke-miterlimit:10;}
	.st8{fill:#D6D6D6;}
	.st9{fill:#5492ED;stroke:#5492ED;stroke-miterlimit:10;}
	.st10{fill:none;stroke:#5492ED;stroke-miterlimit:10;}
	.st11{fill:#EFEFEF;}
	.st12{fill:#709AEE;}
	.st13{fill:#D3D3D3;}
	.st14{fill:#F4F4F4;}
	.st15{fill:#B1CEFC;}
	.st16{fill:none;}
	.st17{fill:#F7CD5B;}
	.st18{fill:#040844;}
	.st19{fill:#B2B2B2;}
	.st20{fill:#CCCCCC;}
</style>
<g id="background">
	<g id="plant">
		<polygon class="st0" points="88.9,484.1 70.4,484.1 64.6,443.6 92.5,443.6 		"/>
		<ellipse class="st1" cx="78.6" cy="444.3" rx="14" ry="3.9"/>
		<g>
			<g>
				<path class="st2" d="M76.5,397.1c-6.5,5.2-2.7,13.2,0.4,19.2c3,5.8,2.6,10.4,0.6,16.4c-1.3,3.9-2.2,7.6-1,11.6
					c0.5,1.9,3.4,1.1,2.9-0.8c-2-7.3,4-13.9,2.9-21.3c-1-7-11.4-16.9-3.7-23.1C80.2,398,78,395.9,76.5,397.1L76.5,397.1z"/>
			</g>
		</g>
		<g>
			<g>
				<path class="st2" d="M63.5,403.7c-1.7,5.2-0.9,9.1,3.4,12.6c2.3,1.9,5.2,3,7.3,5.1c3.1,3.2,3.2,7.7,3.3,11.8c0,1.9,3,1.9,3,0
					c-0.1-4.4-0.3-9.2-3.2-12.8c-4.5-5.7-14.1-6.2-11-15.9C67,402.6,64.1,401.9,63.5,403.7L63.5,403.7z"/>
			</g>
		</g>
		<g>
			<g>
				<path class="st2" d="M76.4,412.9c4.4-0.3,7.8-3.8,9.5-7.7c2.6-5.9,0.6-14.6,7.1-18.2c1.7-0.9,0.2-3.5-1.5-2.6
					c-3.4,1.9-5.2,5-6.1,8.7c-1.3,5.4-1.1,16.3-9,16.8C74.5,410,74.5,413,76.4,412.9L76.4,412.9z"/>
			</g>
		</g>
		<path class="st2" d="M64.6,411.3c-0.9-0.9-2-2.2-3.1-3.8c-0.5-0.7-3-4.4-3.7-8.1c-1.4-7,3.9-13.4,4.8-14.5c1.2,2,2.5,4.8,3.3,8.1
			C67.8,401.2,65.7,408.1,64.6,411.3z"/>
		<path class="st2" d="M78.2,435.7c-0.9,0.8-5.2-2.1-8-5.4c-4-4.8-4.7-10.3-4.8-13.2c1.7,1.4,4,3.6,6.4,6.6
			C75.3,428.1,79.3,434.8,78.2,435.7z"/>
		<path class="st2" d="M81.6,427.4c0.2-1.8,0.8-4.1,2.2-6.6c3.7-6.5,10.2-8.7,12.1-9.2c0.1,1.7,0,4.5-1.5,7.5
			C90.8,426.2,82.5,427.3,81.6,427.4z"/>
		<path class="st2" d="M85.1,396.9c-1.6-1.4-3.3-3.4-4.4-6.1c-2.4-6.3-0.2-14,5.3-20c1,2.4,2.1,5.8,2.4,10.1
			C88.9,388.4,86.5,394.1,85.1,396.9z"/>
	</g>
	<g id="tab_1_">
		<rect x="0.4" y="47.2" class="st3" width="196.9" height="205.1"/>
		<path class="st4" d="M48.7,58.3c-20.9,0-37.9,17-37.9,37.9s17,37.9,37.9,37.9c20.9,0,37.9-17,37.9-37.9S69.6,58.3,48.7,58.3z
			 M48.7,126.3c-16.6,0-30.1-13.5-30.1-30.1S32.1,66,48.7,66c16.6,0,30.1,13.5,30.1,30.1S65.4,126.3,48.7,126.3z"/>
		<g>
			<path class="st5" d="M66.8,168.5c-1.1,0.7-2.1,1.5-3,2.5c2.5,2.7,4,6.3,4,10.2s-1.5,7.5-4,10.2c0.9,1,1.9,1.8,3,2.5
				c3-3.4,4.9-7.8,4.9-12.7S69.8,171.8,66.8,168.5z"/>
			<path class="st6" d="M47,193.8c-2.3,1.5-5.1,2.4-8.1,2.4c-8.3,0-15.1-6.7-15.1-15.1s6.7-15.1,15.1-15.1c3,0,5.8,0.9,8.1,2.4
				c0.9-1,1.9-1.9,3-2.7c-3.1-2.3-6.9-3.6-11.1-3.6c-10.5,0-18.9,8.5-18.9,18.9s8.5,18.9,18.9,18.9c4.1,0,8-1.3,11.1-3.6
				C48.9,195.7,47.9,194.8,47,193.8z"/>
		</g>
		<line class="st7" x1="56.9" y1="166.4" x2="60.4" y2="160"/>
		<line class="st7" x1="64.9" y1="160" x2="118.5" y2="160"/>
		<line class="st7" x1="66.2" y1="155.9" x2="71.7" y2="155.9"/>
		<line class="st7" x1="71.7" y1="155.9" x2="76.9" y2="155.9"/>
		<line class="st7" x1="64.9" y1="149.7" x2="104.6" y2="149.7"/>
		<line class="st7" x1="86.6" y1="154.9" x2="109.9" y2="154.9"/>
		<line class="st7" x1="71.7" y1="145.5" x2="112.5" y2="145.5"/>
		<line class="st7" x1="94.4" y1="59.4" x2="145.2" y2="59.4"/>
		<line class="st7" x1="98.2" y1="62.5" x2="117.2" y2="62.5"/>
		<line class="st7" x1="91.7" y1="71.9" x2="140.2" y2="71.9"/>
		<line class="st7" x1="94.4" y1="80.3" x2="137.1" y2="80.3"/>
		<line class="st7" x1="97" y1="90.8" x2="155.1" y2="90.8"/>
		<line class="st7" x1="15.7" y1="228.4" x2="78.9" y2="228.4"/>
		<line class="st7" x1="25.6" y1="234.4" x2="89.7" y2="234.4"/>
		<line class="st7" x1="87.6" y1="228.4" x2="105.9" y2="228.4"/>
		<line class="st7" x1="116" y1="227.4" x2="151.6" y2="227.4"/>
		<line class="st7" x1="102.8" y1="233.1" x2="165.6" y2="233.1"/>
		<line class="st7" x1="112.5" y1="241.7" x2="180.9" y2="241.7"/>
	</g>
	<g id="tab">
		<rect x="151.6" y="0.4" class="st1" width="207.7" height="207.7"/>
		<rect x="174.3" y="12.7" class="st8" width="172.2" height="129.9"/>
		<circle class="st5" cx="169.4" cy="166.4" r="6.4"/>
		<circle class="st5" cx="169.4" cy="189.8" r="6.4"/>
		<line class="st7" x1="182.1" y1="160" x2="291.3" y2="160"/>
		<line class="st7" x1="200.5" y1="169" x2="316.5" y2="169"/>
		<line class="st7" x1="306.8" y1="160" x2="343.3" y2="160"/>
		<line class="st7" x1="192.3" y1="176.4" x2="218.1" y2="176.4"/>
		<line class="st7" x1="183.7" y1="189.8" x2="272.5" y2="189.8"/>
		<line class="st7" x1="208.4" y1="198.1" x2="277.2" y2="198.1"/>
		<line class="st7" x1="283.3" y1="189.8" x2="325.1" y2="189.8"/>
		<line class="st9" x1="286.8" y1="196.1" x2="346.5" y2="196.1"/>
		<line class="st10" x1="183.7" y1="108.8" x2="212.1" y2="58.8"/>
		<line class="st10" x1="228.1" y1="97.6" x2="212.1" y2="58.8"/>
		<line class="st10" x1="251.3" y1="57" x2="228.1" y2="97.6"/>
		<line class="st10" x1="264.8" y1="68" x2="251.3" y2="57"/>
		<line class="st10" x1="288.7" y1="35.2" x2="264.8" y2="68"/>
		<line class="st10" x1="314.4" y1="128.8" x2="288.7" y2="35.2"/>
		<line class="st10" x1="326.9" y1="83.8" x2="314.4" y2="128.8"/>
		<line class="st10" x1="320.7" y1="89.8" x2="326.9" y2="83.8"/>
		<line class="st10" x1="329.2" y1="94.5" x2="326.9" y2="83.8"/>
	</g>
	<g id="notebook">
		<path class="st11" d="M394.2,528.3c0.1-1.1,63.5,16.8,63.5,16.8l49.2-21.5l-1.9-11l-103.9,5.4l-4.8,2.2L394.2,528.3z"/>
		<line class="st7" x1="398.9" y1="526.1" x2="453.8" y2="540"/>
		<line class="st7" x1="406.7" y1="524.7" x2="456" y2="536.9"/>
		<line class="st7" x1="457.7" y1="545" x2="459.7" y2="534.7"/>
		<line class="st7" x1="461.5" y1="540.8" x2="502.1" y2="523.1"/>
		<line class="st7" x1="470.9" y1="533.1" x2="501.3" y2="519"/>
		<path class="st12" d="M510.2,511.8c-16.8,8-33.6,15.9-50.4,23.9c-20.5-5.4-41-10.8-61.4-16.2c-1.4,2.9-2.8,5.8-4.2,8.7
			c0.3-4,0.6-8,1-12c21-6.3,42-12.7,63-19C475.5,502.1,492.9,506.9,510.2,511.8z"/>
	</g>
	<g id="pillow">
		<path class="st11" d="M189.3,315.6c-8.1,20.3-16.3,45.5-21.9,74.9c-4.4,23-6.3,44.1-7,62.3c9.8,7.6,28.4,19.9,54.6,24.3
			c49.5,8.3,87.2-18.3,95.2-24.2c-0.2-45.8-0.4-91.6-0.6-137.4C269.6,315.6,229.4,315.6,189.3,315.6z"/>
	</g>
	<g id="pillow_2_">
		<path class="st13" d="M372.2,341.7c11.4-2.8,29.5-5.9,51.5-3.3c23.6,2.7,41.6,10.8,52.2,16.5c-2.3,11.8-4.5,23.7-6.6,35.6
			c-5.1,28.4-9.7,56.3-13.9,83.8c-11.7,2-26.5,3.3-43.6,2c-30.9-2.5-54.8-12.7-69.3-20.5C352.4,417.8,362.3,379.8,372.2,341.7z"/>
	</g>
	<g id="pillow_1_">
		<path class="st5" d="M291.5,329.6c-0.9,9.8-2.1,19.8-3.4,30c-4.5,33.5-11.1,64.4-18.7,92.6c11.6,4.1,24.5,8,38.6,11.3
			c28.3,6.6,53.9,8.8,75.3,9.1c4.1-16.5,7.8-34.4,10.8-53.7c4.1-25.6,6.3-49.6,7.4-71.3C364.9,341.6,328.2,335.6,291.5,329.6z"/>
	</g>
	<g id="book">
		<path class="st8" d="M14.7,526.2c0.2,3,0.4,6,0.5,9c10.9,5.6,21.9,11.2,32.8,16.8c17.4,6.8,34.8,13.5,52.2,20.3
			c21.7-6.1,43.4-12.2,65.1-18.3c0.4-2.2,0.8-4.5,1.2-6.7C115.9,540.2,65.3,533.2,14.7,526.2z"/>
		<line class="st7" x1="14.7" y1="531.8" x2="35.9" y2="543.3"/>
		<line class="st7" x1="17.6" y1="530.8" x2="42.7" y2="544.9"/>
		<line class="st7" x1="48.8" y1="545.6" x2="48" y2="552"/>
		<line class="st7" x1="50.1" y1="552.8" x2="48.8" y2="545.6"/>
		<line class="st7" x1="53.3" y1="552.2" x2="82.7" y2="563.2"/>
		<line class="st7" x1="102.3" y1="565.5" x2="100.9" y2="572.2"/>
		<line class="st7" x1="106.3" y1="565.6" x2="144" y2="555.6"/>
		<line class="st7" x1="111" y1="566.9" x2="157" y2="554"/>
		<line class="st7" x1="65.8" y1="553.9" x2="102" y2="567.1"/>
		<polygon class="st14" points="12.1,524.7 50.1,545.6 117.1,530.8 85.5,511.1 		"/>
		<path class="st1" d="M58.7,551.3"/>
		<polygon class="st14" points="50.1,545.6 102.8,564.8 167.5,547 117.1,530.8 		"/>
		<line class="st7" x1="76.9" y1="549.8" x2="93" y2="556"/>
		<line class="st7" x1="81.7" y1="545.6" x2="113.3" y2="557.7"/>
		<line class="st7" x1="101.6" y1="547.8" x2="120.6" y2="554.8"/>
		<line class="st7" x1="101.6" y1="540.7" x2="129.4" y2="551.3"/>
		<line class="st7" x1="111.1" y1="536.2" x2="137.5" y2="546.7"/>
	</g>
</g>
<g id="character">
	<g id="leg_right">
		<path class="st5" d="M286.3,488.4c4.3,0.2,8.6,0.4,12.9,0.6c22.9,30.4,26.6,39.3,24.8,40.9c-1.7,1.6-9.9-2.5-36.3-25.6
			c0.7-1.2,1.6-3.1,1.8-5.7C290,493.2,287,489.3,286.3,488.4z"/>
		<g>
			<g>
				<path class="st6" d="M293.5,502.9c-0.2-1-0.2-2.2,0.3-3.1c0.5-0.9,2-1.5,2.1-0.1c0.1,1.6-1.8,2.4-2.6,3.5
					c-0.3,0.4,0.2,0.9,0.5,0.5c0.8-1,2.3-1.7,2.7-3.1c0.3-0.8,0.2-1.9-0.6-2.4c-0.9-0.6-1.9-0.1-2.5,0.6c-0.9,1.2-1,2.8-0.7,4.2
					C292.9,503.6,293.6,503.4,293.5,502.9L293.5,502.9z"/>
			</g>
		</g>
		<g>
			<g>
				<path class="st6" d="M293.7,503.2c-1.4-0.8-2.8,0.8-3.6,1.9c-0.8,1.1-1.9,3.2-0.9,4.5c0.9,1.2,2.2-0.1,2.8-0.9
					c1.2-1.4,1.7-3.3,1.5-5.1c0-0.5-0.8-0.5-0.8,0c0.1,1.1,0,2.2-0.5,3.3c-0.3,0.7-1,2.1-1.8,2.3c-1.8,0.5-0.4-2.6-0.1-3
					c0.4-0.8,1.8-2.9,2.9-2.2C293.7,504.1,294.1,503.5,293.7,503.2L293.7,503.2z"/>
			</g>
		</g>
		<g>
			<g>
				<path class="st6" d="M294.3,509.2c0.8-2,2.2-3.6,3.9-4.8c0.4-0.3,0-0.9-0.4-0.6c-1.9,1.3-3.4,3.1-4.3,5.2
					C293.4,509.4,294.1,509.6,294.3,509.2L294.3,509.2z"/>
			</g>
		</g>
		<g>
			<g>
				<path class="st6" d="M295.4,510.7c0.7-1.6,1.9-2.9,3.5-3.7c0.4-0.2,0.1-0.9-0.4-0.6c-1.8,0.9-3.1,2.3-3.8,4.1
					C294.5,511,295.3,511.2,295.4,510.7L295.4,510.7z"/>
			</g>
		</g>
		<g>
			<g>
				<path class="st6" d="M297,513.1c1.1-1.4,2.3-2.7,3.6-4c0.4-0.3-0.2-0.9-0.5-0.5c-1.3,1.2-2.5,2.5-3.6,4
					C296.2,513,296.7,513.5,297,513.1L297,513.1z"/>
			</g>
		</g>
		<g>
			<g>
				<path class="st6" d="M296.8,490.1c4.2,8.2,11,15,13.8,24c0.1,0.5,0.9,0.3,0.7-0.2c-2.9-9-9.6-15.9-13.9-24.2
					C297.3,489.3,296.6,489.6,296.8,490.1L296.8,490.1z"/>
			</g>
		</g>
		<path class="st15" d="M284.9,428.4c-0.2,2.1-0.8,10.8-0.9,12.4c-0.6,7.9-0.8,10.3-1.3,13.9c-0.8,5.2-1.3,7.8-2.1,9.5
			c-4.8,10.3-20.2,12.7-24.7,13.4c-3.6,0.6-9.3,1-16.3-0.3c15.6,3.7,31.1,7.4,46.7,11.1c0.6,1.5,1.3,3.4,1.6,5.8
			c0.5,3.1,0.2,5.8-0.1,7.6c-4.7,0.3-11.6,0.7-20.1,1.6c-9.7,1-13.6,1.8-20.3,2.6c-13.1,1.5-23.1,1.6-32.3,1.6
			c-13.4,0-8.7-0.8-35.8-1.8c-7.2-0.3-15.4-0.5-25.3-4.1c-7.1-2.6-10.1-5-12.1-7.8c-4.2-6-3.4-12.9-3.2-14.6
			c1.1-9.1,7.5-15.8,15.2-22c13.3-10.7,24.1-14.7,54.1-26.9c26.6-10.8,30.1-12.5,38.1-12.8C263,416.9,276.7,423.4,284.9,428.4z"/>
		<g>
			<path class="st16" d="M227.9,423c-23.2,8.4-46.5,16.8-67.4,29.8c-7.2,4.5-14.3,9.7-18.5,17c-4.3,7.3-5.1,17.2-0.1,24
				c5,6.8,14.1,8.8,22.4,10c34.9,5.2,70.7,4.9,105.5-0.8"/>
		</g>
		<g>
			<g>
				<path class="st0" d="M283.7,438.7c-0.2,5.1-0.5,10.1-1.3,15.1c-0.6,4.5-1.1,9.2-3.7,13c-0.3,0.4,0.4,0.8,0.6,0.4
					c5.1-7.4,4.8-19.8,5.1-28.5C284.5,438.2,283.7,438.2,283.7,438.7L283.7,438.7z"/>
			</g>
		</g>
		<g>
			<path class="st16" d="M223.7,474.1c21,4,41.9,8.8,62.6,14.3"/>
		</g>
		<g>
			<g>
				<path class="st0" d="M285.9,490.5c2.1,3.5,2.6,7.3,1.5,11.2c-0.1,0.5,0.6,0.7,0.7,0.2c1.1-4.1,0.6-8.2-1.6-11.8
					C286.3,489.7,285.6,490.1,285.9,490.5L285.9,490.5z"/>
			</g>
		</g>
	</g>
	<g id="leg_left">
		<path class="st5" d="M328.2,502.4c7.4,0.6,14.9,1.3,22.3,1.9c4.1,7.7,8.6,16.1,13.5,25.3c9.6,18.1,12.3,23.3,10.6,24.9
			c-2.8,2.6-15.5-6.8-21.2-11c-11.2-8.3-19.4-16.6-24.9-22.8c0.7-1.8,1.5-4.5,1.6-7.7C330.3,508.2,329,504.4,328.2,502.4z"/>
		<path class="st15" d="M311.6,430.6c0.3,2,0.7,4.6,1,7.8c1.1,9.2,1.4,16.9,1.5,22c0.1,5,0.1,10.9-0.3,17.5c-1.3,1.3-3.3,3.1-6,4.6
			c-2.4,1.4-5,2.4-8.9,3.3c-8.7,1.9-17.8,1.7-22,1.4c17,5.1,34.1,10.1,51.1,15.2c0.5,1.8,1,4,1.3,6.5c0.5,4.9-0.1,9.1-0.8,12.1
			c-7.5,0.3-15.1,0.6-22.6,1l-21.7,0.9c-17.5,0.8-23.8,1.1-36.3,1.5c-14.5,0.5-17.5,0.5-19.9,0.4c-8.8-0.3-16.3-0.6-25.7-3.2
			c-8.5-2.4-13.8-5.3-19.3-8.4c-7.7-4.3-10.1-6.9-11.3-9.9c-1.2-3.1-1-6.1-0.7-9.4c0.1-1.5,0.6-6,3.4-12.5c1.7-3.9,4.4-8.9,9.1-14.5
			c3.2-3.7,8.6-9.4,19.8-16.4c12.5-7.8,23.5-12,28.6-13.8c30-10.6,65-14.4,76.9-15.5C309.8,424.3,310.7,427.4,311.6,430.6z"/>
		<g>
			<g>
				<path class="st6" d="M333.9,519.7c-0.3-0.6-0.7-3,0.4-3.4c1.4,1.2,1.5,2.2,0.2,3c-0.5,0.4-0.9,0.7-1.4,1.1
					c-0.8,0.6-1.5,1.3-2,2.2c-0.6,1-1.6,3.4-0.5,4.4c1.1,1.1,2.8-0.4,3.5-1.3c1.2-1.6,1.2-3.6-0.2-5c-0.3-0.3-0.9,0.2-0.5,0.5
					c1.2,1.1,1.2,3.6-0.2,4.5c-2,0.6-2.6,0.1-2-1.4c0.2-0.4,0.3-0.8,0.5-1.1c0.8-1.5,2.3-2.2,3.5-3.4c1-1,2.3-3,1.1-4.4
					c-0.9-1-2.1-0.1-2.7,0.7c-0.8,1.2-0.8,2.7-0.2,3.9C333.5,520.5,334.1,520.1,333.9,519.7L333.9,519.7z"/>
			</g>
		</g>
		<g>
			<g>
				<path class="st6" d="M336.9,529.5c0.2-2.3,1.6-4.2,3.7-5.2c0.4-0.2,0.1-0.8-0.4-0.6c-2.3,1.1-3.8,3.3-4.1,5.8
					C336.1,530,336.9,530,336.9,529.5L336.9,529.5z"/>
			</g>
		</g>
		<g>
			<g>
				<path class="st6" d="M339.5,533.5c0.1-2.3,1.1-4.3,2.9-5.8c0.4-0.3-0.2-0.8-0.5-0.5c-1.9,1.6-3,3.9-3.1,6.4
					C338.7,534,339.5,534,339.5,533.5L339.5,533.5z"/>
			</g>
		</g>
		<g>
			<g>
				<path class="st6" d="M341.8,534.9c0.4-2,1.4-3.7,3-4.9c0.4-0.3,0-0.9-0.4-0.6c-1.8,1.3-3,3.2-3.4,5.3
					C341,535.2,341.7,535.4,341.8,534.9L341.8,534.9z"/>
			</g>
		</g>
		<g>
			<g>
				<path class="st6" d="M344.5,537.2c0.8-1.7,1.9-3.2,3.3-4.4c0.4-0.3-0.2-0.9-0.5-0.5c-1.4,1.3-2.5,2.9-3.4,4.6
					C343.6,537.3,344.2,537.7,344.5,537.2L344.5,537.2z"/>
			</g>
		</g>
		<g>
			<g>
				<path class="st6" d="M346.3,506c5.8,10.3,11.3,20.7,16.5,31.2c0.2,0.4,0.9,0.1,0.6-0.4c-5.3-10.5-10.8-20.9-16.5-31.2
					C346.8,505.2,346.1,505.6,346.3,506L346.3,506z"/>
			</g>
		</g>
		<g>
			<path class="st16" d="M312.2,434.4c1.9,14.4,2.5,29,1.8,43.5"/>
		</g>
		<g>
			<g>
				<path class="st6" d="M171.4,495.1c3.3-32.6,36-47.8,62.6-58.9c0.4-0.2,0.2-0.9-0.2-0.7c-27,11.3-59.8,26.7-63.2,59.7
					C170.6,495.6,171.3,495.6,171.4,495.1L171.4,495.1z"/>
			</g>
		</g>
		<g>
			<path class="st16" d="M171.9,503.1c9,10.8,22.6,17,36.5,19.7c13.8,2.6,28.1,2,42.1,1.4c26.1-1.1,52.1-2.2,78.2-3.3"/>
		</g>
		<g>
			<path class="st16" d="M246.1,479.9c27.7,6.2,55.1,13.7,82.1,22.4"/>
		</g>
		<g>
			<path class="st16" d="M329,504.3c0.7,4.5,0.7,9.1-0.3,13.5"/>
		</g>
		<g>
			<path class="st16" d="M277.1,487.2c5.8,0.1,11.6,0.2,17.3-0.6c5.7-0.8,11.4-2.5,16.2-5.8"/>
		</g>
	</g>
	<g id="hand_right">
		<path class="st17" d="M179.6,414.1c-1,0.1-1.4,0.7-4.3,3.9c-1.8,2-3.7,3.9-5.5,5.9c-1.8,2-3.6,4.1-5.4,6.1c-1.8,2-2.7,3-3.1,4.7
			c-0.2,0.6-0.6,2.5,0.3,4.2c1.5,3,5.6,3.3,6.9,3.4c1.4,0.1,3.9,0,6.4-1.4c3.5-2,4.7-5.2,5-6.1c-0.8,2.4-0.8,4.5,0,4.9
			c1.2,0.6,3.8-2.4,3.9-2.5c1.4-1.6,1.9-3.1,2-3.5c0.7-2.3,0.2-3.4,0.2-6.7c-0.1-4.9,1.1-5,0.4-7.2
			C185.4,416.8,182.3,413.8,179.6,414.1z"/>
		<path class="st18" d="M208.4,303.8c-0.8,0.7-2,1.7-3.1,3.2c-1.8,2.5-2.5,5-2.8,6.3c-2.1,7.8-2.5,6.3-4.2,13.6
			c-0.7,2.8-1.9,8.5-2.6,16.6c-1.4,15.7-0.2,31.3,0.6,38.9c-3.2,6.1-6.8,12.5-10.8,19c-3.4,5.6-6.8,10.9-10.2,15.8
			c1.1,0,3.3,0.2,5.5,1.6c3.8,2.4,4.7,6.3,4.9,7.2c8.1-6.8,14.8-11.1,19.5-13.8c0.9-0.5,7-3.9,13.2-9.2c1.6-1.3,3.6-3.2,5.7-5.9
			c1.5-2,2.7-4.1,4.2-7.1c2-4.2,3.8-9.1,5.6-15.7c0.8-3,2.3-8.6,3.1-15.3c1.2-9.9,2.6-20.8-1.3-30.9
			C229.6,312.7,213.7,305.8,208.4,303.8z"/>
		<g>
			<path class="st16" d="M206.1,305.5c-11.9,22.7-12,49.6-10.3,75.2"/>
		</g>
		<g>
			<path class="st16" d="M194.7,385.1c-5.7,10.4-11.6,20.6-17.8,30.7"/>
		</g>
		<g>
			<g>
				<path class="st0" d="M176.9,418c3.7,0.3,6.8,3.1,7.7,6.7c0.1,0.5,0.8,0.3,0.7-0.2c-1-4-4.3-6.9-8.4-7.2
					C176.4,417.2,176.4,418,176.9,418L176.9,418z"/>
			</g>
		</g>
		<g>
			<path class="st16" d="M187.6,424.2c8.1-5.5,16.3-11,24.4-16.5c3.4-2.3,6.9-4.6,9.7-7.6c4.3-4.6,7-10.4,9.2-16.3
				c2.6-7.2,4.6-14.7,5.8-22.3"/>
		</g>
		<g>
			<g>
				<path class="st0" d="M185.3,426.2c0.6,4.1,1,9.2-3.1,11.7c-0.4,0.3,0,0.9,0.4,0.6c4.4-2.8,4.1-8.1,3.4-12.6
					C186,425.6,185.3,425.8,185.3,426.2L185.3,426.2z"/>
			</g>
		</g>
		<g>
			<path class="st16" d="M174.2,418.9c-3.3,3.7-6.6,7.4-9.9,11.1c-2,2.3-4.2,5.2-3.3,8.1"/>
		</g>
		<g>
			<g>
				<path class="st0" d="M168,429.9c-2.6,2.6-4,6.1-3.8,9.8c0,0.5,0.8,0.5,0.8,0c-0.2-3.5,1.1-6.8,3.6-9.3
					C168.8,430,168.3,429.5,168,429.9L168,429.9z"/>
			</g>
		</g>
		<g>
			<g>
				<path class="st0" d="M171.4,432.1c-2.6,2.2-3.9,5.4-3.7,8.8c0,0.5,0.8,0.5,0.8,0c-0.2-3.2,1-6.2,3.5-8.3
					C172.3,432.3,171.8,431.8,171.4,432.1L171.4,432.1z"/>
			</g>
		</g>
		<g>
			<g>
				<path class="st0" d="M175,433.5c-2.5,1.9-3.9,4.8-3.8,8c0,0.5,0.8,0.5,0.8,0c0-3,1.3-5.6,3.6-7.4
					C176,433.8,175.4,433.3,175,433.5L175,433.5z"/>
			</g>
		</g>
	</g>
	<g id="torso">
		<path class="st18" d="M208.4,303.8c-0.7,3.8-1.3,7.6-2,11.5c1.3,12.1,2.8,22.1,4,29.2c5,28.8,11.8,51.2,15.9,64.6
			c1.7,5.4,3.1,9.8,4,12.6c5.5,2.7,12.3,5.6,20.2,8.3c4.5,1.5,11,3.6,19.8,5.1c7.7,1.3,14,2.4,22.3,1.5c7.9-0.9,14.4-3.3,18.9-5.4
			c0.7-4.6,1.5-10.7,2.2-17.9c0.7-6.1,1.6-14.2,2.1-24c0.3-5.8,0.9-16.1,0.3-29.4c-0.5-12.4-1-22.7-4.2-35.8
			c-1.7-7-3.7-12.7-5.2-16.7c-4.2-1.9-10.2-4.3-17.7-6.3c-8.5-2.2-14.9-2.8-23.6-3.5c-13.6-1.2-20.4-1.8-29.3-0.8
			C229.6,297.4,219.8,299.1,208.4,303.8z"/>
		<g>
			<path class="st16" d="M208.4,303.8c17.5-6.6,36.6-7.6,55.3-6.5c14.2,0.9,28.7,3,41.3,9.6"/>
		</g>
		<g>
			<g>
				<path class="st0" d="M308.3,310.1c10.6,37.8,8.8,77.4,3.5,116c-0.1,0.5,0.7,0.7,0.7,0.2c5.3-38.7,7.1-78.4-3.5-116.4
					C308.9,309.4,308.1,309.6,308.3,310.1L308.3,310.1z"/>
			</g>
		</g>
		<g>
			<g>
				<path class="st6" d="M206,315.3c3.8,35.7,11.7,70.8,23.6,104.7c0.2,0.5,0.9,0.3,0.7-0.2c-11.8-33.8-19.7-68.9-23.5-104.5
					C206.7,314.8,205.9,314.8,206,315.3L206,315.3z"/>
			</g>
		</g>
		<g>
			<path class="st16" d="M235,423.2c4.5,3.5,10.1,5.2,15.5,6.8c10,3,20.2,5.8,30.6,6.6s21.2-0.5,30.4-5.5"/>
		</g>
	</g>
	<g id="laptop">
		<polygon class="st19" points="231.5,472.3 316.5,435.4 225.4,415.8 125.2,430.1 		"/>
		<line class="st7" x1="151.2" y1="432.3" x2="229.9" y2="463.5"/>
		<line class="st7" x1="295.2" y1="436.5" x2="231.4" y2="462.9"/>
		<line class="st7" x1="223" y1="421.1" x2="295.2" y2="436.5"/>
		<line class="st7" x1="151.2" y1="432.3" x2="223" y2="421.1"/>
		<line class="st7" x1="167.5" y1="430.1" x2="242.7" y2="457"/>
		<line class="st7" x1="186.1" y1="426.9" x2="255.6" y2="451.9"/>
		<line class="st7" x1="203.2" y1="424.2" x2="267" y2="446.6"/>
		<line class="st7" x1="224.2" y1="459.7" x2="286.8" y2="435.2"/>
		<line class="st7" x1="212.1" y1="456.4" x2="279" y2="433.1"/>
		<line class="st7" x1="203.5" y1="451.9" x2="268.2" y2="430.8"/>
		<line class="st7" x1="215.6" y1="422.3" x2="282.1" y2="441.9"/>
		<line class="st7" x1="164.7" y1="436.8" x2="229.9" y2="423.2"/>
		<line class="st7" x1="175.4" y1="441.9" x2="239.3" y2="424.6"/>
		<line class="st7" x1="186.1" y1="446.1" x2="237.8" y2="428.8"/>
		<line class="st7" x1="195" y1="448.7" x2="245.2" y2="432.1"/>
		<polygon class="st20" points="117.1,335.6 125.2,430.1 231.5,472.3 228.2,363.9 		"/>
	</g>
	<g id="hand_left">
		<path class="st17" d="M264.4,435.6c-1-0.3-2.5-0.7-4.3-1.1c-3.3-0.6-5.1-0.9-7.2-0.1c-0.5,0.2-2,0.8-3.1,2.4
			c-1,1.3-1.2,2.7-1.2,3.4c-0.9,0.5-2.3,1.4-3.6,3c-0.9,1.2-2.3,2.9-2.1,4.9c0.2,3.3,4,5.2,4.8,5.6c2.7,1.3,5.2,0.9,8.1,0.4
			c3-0.5,5.1-1.4,8.5-2.9c3.3-1.5,4.9-2.2,6.5-3.9c1.1-1.1,3.2-3.3,2.9-5.7C273.5,438.6,269.7,436,264.4,435.6z"/>
		<path class="st18" d="M306.8,308c-5-1.7-8.8-1.2-10.9-0.7c-9.3,2.3-16.5,12.5-17.6,25.6c3,9.7,6,19.4,8.9,29.2
			c2.8,9.2,5.5,18.3,8.2,27.4c-5.9,7.8-11.8,15.9-17.7,24.2c-5.2,7.3-10.1,14.5-14.9,21.6c1.2,0.8,3,2,4.5,4
			c2.5,3.1,3.2,6.4,3.5,8.1c2.4,0,6-0.2,10-1.4c2.1-0.6,4.4-1.4,11.2-5c5-2.7,8.6-4.6,13.4-7.8c1.9-1.3,7.5-5,14.3-10.7
			c4.6-3.9,10.2-9.1,16.1-15.7c-0.2-2.5-0.5-6.1-0.9-10.4c-0.8-8.1-1.3-13.1-2.1-19.1c-0.7-4.8-1.5-10.9-3.3-18.7
			c-1.2-5.1-2.7-11.7-5.9-20.1c-1.7-4.6-4.6-12-10-20.7C311.1,313.6,308.7,310.3,306.8,308z"/>
		<g>
			<path class="st16" d="M306.8,308c10.6,13.2,17.3,29.1,21.5,45.5c4.2,16.4,5.9,33.3,7.2,50.1"/>
		</g>
		<g>
			<g>
				<path class="st6" d="M277.8,331.7c5.8,19.3,11.6,38.5,17.4,57.8c0.1,0.5,0.9,0.3,0.7-0.2c-5.8-19.3-11.6-38.5-17.4-57.8
					C278.3,331.1,277.6,331.3,277.8,331.7L277.8,331.7z"/>
			</g>
		</g>
		<g>
			<g>
				<path class="st6" d="M294.9,390.4c-11.4,14.4-22.2,29.3-32.4,44.6c-0.3,0.4,0.4,0.8,0.6,0.4c10.1-15.3,20.9-30.1,32.2-44.4
					C295.7,390.6,295.2,390,294.9,390.4L294.9,390.4z"/>
			</g>
		</g>
		<g>
			<g>
				<path class="st0" d="M263.2,435.8c3.8,2.6,6.2,6.4,7,10.9c0.1,0.5,0.8,0.3,0.7-0.2c-0.8-4.7-3.5-8.7-7.4-11.4
					C263.2,434.8,262.8,435.5,263.2,435.8L263.2,435.8z"/>
			</g>
		</g>
		<g>
			<path class="st16" d="M270.9,447.2c4.2,0.9,8.4-0.6,12.3-2.3c19.5-8.2,37-20.8,51-36.7"/>
		</g>
		<g>
			<path class="st16" d="M262.3,435.4c-1.9-1.1-4-1.6-6.2-1.6c-1.6,0-3.3,0.4-4.6,1.3c-1.3,0.9-2.3,2.5-2.3,4.1"/>
		</g>
		<g>
			<path class="st16" d="M254.2,439c-2.5-0.3-5,0.6-7,2.1c-2,1.5-3.5,3.6-4.5,5.9"/>
		</g>
		<g>
			<g>
				<path class="st0" d="M244.5,449c3.4-2.8,7.1-5,11.2-6.7c0.4-0.2,0.2-0.9-0.2-0.7c-4.2,1.7-8.1,4-11.5,6.9
					C243.6,448.7,244.2,449.3,244.5,449L244.5,449z"/>
			</g>
		</g>
		<g>
			<g>
				<path class="st0" d="M245.1,450.1c4,0.8,8.5-1.8,12.2-3.1c0.5-0.2,0.3-0.9-0.2-0.7c-3.4,1.2-8.1,3.8-11.8,3.1
					C244.9,449.2,244.7,450,245.1,450.1L245.1,450.1z"/>
			</g>
		</g>
		<g>
			<g>
				<path class="st0" d="M246.7,451.6c4.5,1.5,8.9,0.1,13.2-1.4c0.5-0.2,0.3-0.9-0.2-0.7c-4.1,1.5-8.4,2.9-12.8,1.4
					C246.4,450.7,246.2,451.4,246.7,451.6L246.7,451.6z"/>
			</g>
		</g>
		<g>
			<path class="st16" d="M248.3,453.5c2.6,1.3,5.7,1,8.5,0.3c4.8-1.1,9.4-3.3,13.3-6.3"/>
		</g>
	</g>
	<g id="head">
		<path class="st17" d="M232.5,298c0.4,1.1,1.2,2.7,2.4,4.4c1,1.4,3,4.2,6.6,5.7c4.4,1.9,8.5,0.8,9.9,0.3c0.7,0.5,1.3,1,2,1.5
			c-0.2,0.2-1.1,0.9-1.2,2c-0.2,1.3,0.7,2.6,1.7,3.1c1.5,0.7,3.2-0.3,4.1-0.8c2.7-1.6,3.8-4.6,4.3-6.1c0.4-1.2,0.6-2.2,0.7-2.8
			c-1.1-1.3-2.2-2.6-3.4-3.9c0.5-0.7,1.1-1.8,1.4-3.2c0.5-2.2,0-3.8-0.2-5.4c-0.9-6,2.7-8.5,0.7-11.6c0,0-1.4-2.4-4.4-3.4
			C251.2,275.9,241.5,284.5,232.5,298z"/>
		<path class="st2" d="M259.2,287.8c-0.6-0.7-1.6-1.8-3.1-2.4c-3.2-1.3-6.5,0.4-8.1,1.2c-1.2,0.6-2,1.2-5.4,4.4
			c-5.8,5.4-6.4,6.2-8.5,7.5c-2.6,1.6-4.7,2.9-7.5,2.6c-0.3,0-4.1-0.5-6.2-3.8c-1.8-2.9-1.1-6.1-0.7-7.7c1.5-6.7,7.7-10.3,9.5-11.3
			c3-1.7,5.9-2.4,7.6-2.7c-0.2-0.3-1.9-2.8-1-5.2c0.6-1.7,2.1-2.6,3.1-3.1c2-1.2,2.9-0.7,4.8-1.5c1.6-0.7,2.1-1.7,4.4-4.5
			c2.8-3.4,4.2-5.1,5.4-6c4-3.1,9-2.8,10.4-2.8c5.7,0.3,9.6,3.3,11,4.5c3.7,3,5.3,6.5,6.2,8.4c2,4.4,2.3,8.3,2.3,10.6
			c0,2-0.1,5.6-2,9.7c-0.7,1.4-2.8,5.7-7.6,8.6c-2.8,1.7-5.3,2.2-6,2.3c-3.1,0.6-5.6,0.1-7.1-0.2
			C260.2,293.4,259.7,290.6,259.2,287.8z"/>
		<ellipse transform="matrix(0.866 -0.5 0.5 0.866 -115.6703 163.229)" class="st0" cx="246.8" cy="297.5" rx="0.8" ry="1.6"/>
		<g>
			<path class="st16" d="M233.6,299.9c1.6,4.3,5.3,7.7,9.7,8.9c4.6,1.3,9.9,0.1,13.4-3.2c3.5-3.3,5-8.6,3.7-13.2"/>
		</g>
		<g>
			<g>
				<path class="st0" d="M251.3,308.8c0.8,0.6,1.7,1.2,2.5,1.8c0.4,0.3,0.8-0.4,0.4-0.6c-0.8-0.6-1.7-1.2-2.5-1.8
					C251.2,307.8,250.9,308.5,251.3,308.8L251.3,308.8z"/>
			</g>
		</g>
		<g>
			<path class="st16" d="M252.3,311.4c-0.1,1-0.1,2.1,0.5,2.9c0.9,1.1,2.7,1.1,4,0.6c1.8-0.7,3.3-2.2,4.3-4c1-1.7,1.5-3.7,1.8-5.7"
				/>
		</g>
		<g>
			<g>
				<path class="st0" d="M240.9,298.6c1,3.2,2.9,7.6,7.1,6.7c0.5-0.1,0.3-0.8-0.2-0.7c-3.7,0.8-5.3-3.4-6.2-6.2
					C241.5,297.9,240.8,298.1,240.9,298.6L240.9,298.6z"/>
			</g>
		</g>
		<g>
			<path class="st16" d="M243.8,289c-2.4,2.7-5,5.2-7.7,7.6c-2,1.8-4.2,3.6-6.8,4.2c-2.6,0.6-5.4-0.1-7.4-1.9s-3.1-4.4-2.9-7.1
				c0.2-1.7,0.8-3.4,1.6-4.9c3.3-6.1,9.3-10.9,16.2-11.6c1.9-0.2,3.9-0.1,5.8,0.1c3.8,0.4,7.6,0.9,11,2.7s6.3,4.8,6.9,8.5"/>
		</g>
		<g>
			<path class="st16" d="M246.2,287.5c2.5-1.5,5.4-2.1,8.3-2.2c2.1,0,4.2,0.3,5.8,1.6"/>
		</g>
		<g>
			<path class="st16" d="M236.8,275.4c-1.1-1.8-2.2-4-1.3-5.9c1.2-2.7,5-2.5,7.7-3.7c3.5-1.6,5.1-5.6,7.6-8.4
				c4.7-5.3,13-6.5,19.4-3.5s10.9,9.3,12.4,16.2c1.5,6.7,0.4,14.1-3.8,19.5c-4.2,5.4-11.6,8.5-18.2,6.7"/>
		</g>
		<path class="st5" d="M245.4,276c1.9-2.1,4.9-2.9,7.6-2.1c2.9,0.9,4.9,3.7,5,6.8c-1.2-1.1-3.4-2.7-6.5-3.7
			C249.1,276.1,246.9,276,245.4,276z"/>
	</g>
</g>
</svg>
