<?xml version="1.0" encoding="UTF-8" standalone="no"?> <!-- Created with Vectornator for iOS (http://vectornator.io/) --><!DOCTYPE svg PUBLIC "-//W3C//DTD SVG 1.1//EN" "http://www.w3.org/Graphics/SVG/1.1/DTD/svg11.dtd">
<svg style="fill-rule:nonzero;clip-rule:evenodd;stroke-linecap:round;stroke-linejoin:round;" xmlns:xlink="http://www.w3.org/1999/xlink" height="100%" width="100%" version="1.1" xmlns:vectornator="http://vectornator.io" viewBox="0 0 541.353 541.353" xmlns="http://www.w3.org/2000/svg" xml:space="preserve">
<metadata>
<vectornator:setting key="WDGuidesVisible" value="true"/>
<vectornator:setting value="true" key="VNSnapToGuides"/>
<vectornator:setting key="WDSnapToGrid" value="false"/>
<vectornator:setting key="WDSnapToEdges" value="false"/>
<vectornator:setting value="false" key="WDDynamicGuides"/>
<vectornator:setting key="WDUnits" value="Pixels"/>
<vectornator:setting key="VNDimensionsVisible" value="true"/>
<vectornator:setting value="false" key="WDDisplayWhiteBackground"/>
<vectornator:setting key="WDSnapToPoints" value="false"/>
<vectornator:setting key="WDRulersVisible" value="true"/>
</metadata>
<defs/>
<g id="Untitled" vectornator:layerName="Untitled">
<g opacity="1">
<path d="M76.49+261.707C76.49+252.998+83.55+245.938+92.259+245.938C100.968+245.938+108.028+252.998+108.028+261.707C108.028+270.416+100.968+277.476+92.259+277.476C83.55+277.476+76.49+270.416+76.49+261.707Z" opacity="1" fill="#ffffff"/>
<path opacity="1" d="M164.561+261.707C164.561+252.993+171.625+245.929+180.339+245.929C189.053+245.929+196.117+252.993+196.117+261.707C196.117+270.421+189.053+277.485+180.339+277.485C171.625+277.485+164.561+270.421+164.561+261.707Z" fill="#ffffff"/>
<path d="M252.641+261.707C252.641+252.993+259.705+245.929+268.419+245.929C277.133+245.929+284.197+252.993+284.197+261.707C284.197+270.421+277.133+277.485+268.419+277.485C259.705+277.485+252.641+270.421+252.641+261.707Z" opacity="1" fill="#ffffff"/>
<path d="M340.722+261.707C340.722+252.993+347.786+245.929+356.5+245.929C365.214+245.929+372.278+252.993+372.278+261.707C372.278+270.421+365.214+277.485+356.5+277.485C347.786+277.485+340.722+270.421+340.722+261.707Z" fill="#ffffff" opacity="1"/>
<path fill="#ffffff" opacity="1" d="M33.947+262.845L33.947+260.588C33.947+223.552+64.069+193.421+101.105+193.421L418.025+193.421C421.19+193.421+424.576+193.708+428.372+194.301L428.803+194.368L429.176+194.139C440.68+187.273+453.866+183.639+467.292+183.639C472.169+183.639+477.007+184.107+481.674+185.026L486.254+185.915L482.678+182.932C464.547+167.804+441.578+159.475+418.026+159.475L101.106+159.475C45.355+159.474+0+204.829+0+260.579L0+262.835C0+318.585+45.355+363.939+101.104+363.939L378.656+363.939L378.656+330.011L101.104+330.011C64.069+330.011+33.947+299.88+33.947+262.845Z"/>
<path d="M533.014+293.387L524.704+293.387L524.704+251.331C524.704+221.573+498.972+197.351+467.3+197.351C435.62+197.351+409.868+221.563+409.868+251.331L409.868+293.387C409.868+293.387+406.148+293.387+401.557+293.387C396.958+293.387+393.229+298.427+393.229+304.681L393.229+370.556C393.229+376.8+398.316+381.878+404.522+381.878L530.058+381.878C536.303+381.878+541.352+376.8+541.352+370.556L541.352+304.681C541.343+298.427+537.633+293.387+533.014+293.387ZM467.3+348.832C459.497+348.832+453.167+342.482+453.167+334.68C453.167+326.875+459.497+320.555+467.3+320.555C475.104+320.555+481.434+326.866+481.434+334.68C481.434+342.482+475.113+348.832+467.3+348.832ZM505.914+293.387L428.706+293.387L428.706+251.331C428.706+231.967+446.015+216.189+467.3+216.189C488.568+216.189+505.914+231.958+505.914+251.331L505.914+293.387Z" fill="#ffffff" opacity="1"/>
</g>
</g>
</svg>
